<svg width="93" height="30" viewBox="0 0 93 30" fill="none" xmlns="http://www.w3.org/2000/svg">
<g clip-path="url(#clip0_2321_3808)">
<path d="M26.8549 22.9587C25.6082 22.9587 24.4398 22.7259 23.3498 22.2581C22.2597 21.7903 21.3051 21.1596 20.4881 20.3658C19.6711 19.5721 19.0234 18.6366 18.5492 17.5613C18.073 16.4861 17.8359 15.3431 17.8359 14.1281C17.8359 12.9132 18.073 11.7681 18.5492 10.6949C19.0234 9.6197 19.6711 8.68203 20.4881 7.87983C21.3051 7.07762 22.2597 6.44263 23.3498 5.97697C24.4398 5.5092 25.6082 5.27637 26.8549 5.27637C28.5673 5.27637 30.0595 5.62773 31.3295 6.32833C32.5995 7.02894 33.6303 7.99412 34.4261 9.22601C34.5044 9.35089 34.5235 9.49482 34.4854 9.6578C34.4473 9.82078 34.3647 9.94143 34.2399 10.0197L31.4374 11.8189C31.3125 11.8972 31.1729 11.9247 31.0162 11.9014C30.8596 11.8781 30.7284 11.8041 30.6183 11.6792C30.1357 11.0865 29.5938 10.6124 28.9948 10.2547C28.3958 9.89698 27.6825 9.71706 26.857 9.71706C26.2644 9.71706 25.7077 9.83771 25.187 10.079C24.6642 10.3203 24.2091 10.6442 23.8197 11.0484C23.4302 11.4527 23.1233 11.9247 22.8968 12.4623C22.6703 13 22.5581 13.5566 22.5581 14.1324C22.5581 14.7081 22.6703 15.2859 22.8968 15.8151C23.1233 16.3442 23.4302 16.8078 23.8197 17.2057C24.2091 17.6036 24.6642 17.9233 25.187 18.1645C25.7077 18.4058 26.2644 18.5265 26.857 18.5265C27.4497 18.5265 28.0318 18.4185 28.6096 18.1984C29.1853 17.9804 29.6446 17.6227 29.9875 17.1232C30.0659 16.9983 30.0722 16.8861 30.0108 16.7845C29.9494 16.6829 29.8394 16.6321 29.6827 16.6321H26.9967C26.8401 16.6321 26.7089 16.5771 26.5988 16.4691C26.4887 16.3612 26.4358 16.2278 26.4358 16.0712V13.2921C26.4358 13.1354 26.4909 13.0042 26.5988 12.8941C26.7068 12.7862 26.8401 12.7312 26.9967 12.7312H35.0336C35.1881 12.7312 35.3257 12.7819 35.4421 12.8835C35.5585 12.9851 35.6241 13.1206 35.6411 13.2921C35.6728 13.5566 35.6876 13.8805 35.6876 14.2615C35.6876 14.6425 35.6644 15.0362 35.6178 15.4404C35.5098 16.5157 35.205 17.5126 34.7076 18.4312C34.2081 19.3499 33.5668 20.1436 32.7794 20.8146C31.992 21.4834 31.0924 22.0105 30.0807 22.3915C29.0689 22.7725 27.9937 22.963 26.857 22.963" fill="white"/>
<path d="M36.1504 14.1047C36.1504 12.8897 36.3832 11.7446 36.851 10.6715C37.3188 9.59626 37.9495 8.65859 38.7433 7.85639C39.537 7.05418 40.4726 6.4192 41.5478 5.95354C42.6231 5.48576 43.7682 5.25293 44.981 5.25293C46.1938 5.25293 47.341 5.48576 48.4163 5.95354C49.4915 6.42131 50.4292 7.0563 51.2314 7.85639C52.0336 8.65859 52.6686 9.59626 53.1343 10.6715C53.602 11.7468 53.8349 12.8919 53.8349 14.1047C53.8349 15.3175 53.602 16.4647 53.1343 17.5379C52.6665 18.6131 52.0315 19.5508 51.2314 20.353C50.4292 21.1552 49.4915 21.7902 48.4163 22.2558C47.341 22.7236 46.1959 22.9565 44.981 22.9565C43.766 22.9565 42.6209 22.7236 41.5478 22.2558C40.4726 21.7881 39.5391 21.1552 38.7433 20.353C37.9495 19.5508 37.3188 18.6131 36.851 17.5379C36.3832 16.4626 36.1504 15.3175 36.1504 14.1047ZM40.7774 14.1047C40.7774 14.6973 40.8853 15.2583 41.1033 15.7874C41.3213 16.3166 41.6219 16.7844 42.0029 17.1886C42.3839 17.5929 42.8326 17.9167 43.3469 18.158C43.8613 18.3993 44.4053 18.52 44.9831 18.52C45.5609 18.52 46.1049 18.3993 46.6193 18.158C47.1336 17.9167 47.5844 17.5929 47.9739 17.1886C48.3634 16.7844 48.666 16.3166 48.8841 15.7874C49.1021 15.2583 49.2121 14.6973 49.2121 14.1047C49.2121 13.512 49.1042 12.9723 48.8841 12.4347C48.666 11.897 48.3613 11.4293 47.9739 11.0335C47.5844 10.6355 47.1336 10.318 46.6193 10.0746C46.1049 9.83332 45.5609 9.71268 44.9831 9.71268C44.4053 9.71268 43.8613 9.83332 43.3469 10.0746C42.8326 10.3159 42.386 10.6355 42.0029 11.0335C41.6219 11.4314 41.3213 11.897 41.1033 12.4347C40.8853 12.9723 40.7774 13.529 40.7774 14.1047Z" fill="white"/>
<path d="M59.0953 22.6561H55.586C55.4166 22.6561 55.2791 22.6011 55.1796 22.4931C55.078 22.3852 55.0293 22.2518 55.0293 22.0952V6.14001C55.0293 5.98338 55.0801 5.85215 55.1796 5.74208C55.2812 5.63413 55.4166 5.5791 55.586 5.5791H59.0953C59.2499 5.5791 59.3811 5.63413 59.4912 5.74208C59.5991 5.85215 59.6541 5.98338 59.6541 6.14001V22.0952C59.6541 22.2518 59.5991 22.3831 59.4912 22.4931C59.3832 22.6032 59.2499 22.6561 59.0953 22.6561Z" fill="white"/>
<path d="M66.8943 6.09174C66.9557 5.95204 67.0615 5.83139 67.2097 5.7298C67.3578 5.6282 67.5166 5.5774 67.688 5.5774H70.9582C71.1148 5.5774 71.2651 5.6282 71.4133 5.7298C71.5615 5.83139 71.6652 5.95204 71.7287 6.09174L78.5506 21.9771C78.612 22.1168 78.6014 22.2649 78.5146 22.4216C78.4278 22.5782 78.2606 22.6544 78.013 22.6544H74.0189C73.8474 22.6544 73.6887 22.6036 73.5405 22.502C73.3923 22.4004 73.2802 22.2798 73.2018 22.1401L72.5711 20.7388C72.4928 20.5991 72.3806 20.4785 72.2324 20.3769C72.0843 20.2753 71.9319 20.2245 71.7773 20.2245H66.8477C66.6763 20.2245 66.5175 20.2753 66.3693 20.3769C66.2212 20.4785 66.1154 20.5991 66.054 20.7388L65.3999 22.1401C65.3386 22.2798 65.2327 22.4004 65.0846 22.502C64.9364 22.6036 64.784 22.6544 64.6295 22.6544H60.6121C60.5338 22.6544 60.4534 22.6396 60.3666 22.6078C60.2819 22.5761 60.2099 22.5295 60.157 22.4681C60.102 22.4068 60.0681 22.3284 60.0512 22.2353C60.0364 22.1422 60.0597 22.0321 60.121 21.9072L66.8964 6.09174H66.8943ZM70.5899 0.94832L73.2463 2.0913C73.4918 2.21407 73.5109 2.36223 73.3013 2.53368L70.664 4.50638C70.5645 4.58046 70.4396 4.64396 70.2851 4.70111C70.1306 4.75614 69.993 4.78366 69.8703 4.78366H67.5271C67.4044 4.78366 67.324 4.74979 67.288 4.68206C67.252 4.61433 67.2753 4.53178 67.3621 4.4323L69.9084 1.13035C69.9824 1.03299 70.0862 0.963136 70.2216 0.927154C70.3571 0.889054 70.4799 0.897521 70.5899 0.946203M68.2743 16.2558H70.3529C70.5095 16.2558 70.6217 16.205 70.6915 16.1034C70.7614 16.0018 70.7571 15.8812 70.6788 15.7415C70.5222 15.352 70.3359 14.8969 70.1179 14.3741C69.8999 13.8534 69.6967 13.3666 69.5104 12.9137C69.4469 12.774 69.3771 12.7041 69.3009 12.7041C69.2247 12.7041 69.1527 12.774 69.0913 12.9137L67.923 15.7394C67.8616 15.8791 67.8616 15.9997 67.923 16.1013C67.9843 16.2029 68.1029 16.2537 68.2743 16.2537" fill="white"/>
<path d="M80.6559 16.7933C81.4962 17.3394 82.3302 17.7669 83.1557 18.0781C83.9812 18.3892 84.7516 18.5459 85.4691 18.5459C86.1867 18.5459 86.6756 18.4485 87.0355 18.2538C87.3932 18.059 87.5731 17.7669 87.5731 17.3775C87.5731 17.1764 87.4948 17.0155 87.3403 16.8991C87.1836 16.7827 86.9783 16.6853 86.7222 16.607C86.4661 16.5287 86.1655 16.4673 85.8226 16.4208C85.4797 16.3742 85.1305 16.3128 84.7707 16.2345C84.4278 16.1731 84.0277 16.099 83.5684 16.0122C83.1091 15.9276 82.6371 15.8027 82.1545 15.6376C81.6719 15.4746 81.1935 15.2672 80.7173 15.0195C80.2411 14.7698 79.8177 14.4502 79.4431 14.0607C79.0684 13.6712 78.77 13.2077 78.5435 12.6701C78.317 12.1325 78.2049 11.4975 78.2049 10.7651C78.2049 9.68986 78.4144 8.80299 78.8356 8.10238C79.2568 7.40178 79.7902 6.8451 80.4358 6.43236C81.0814 6.01961 81.8031 5.73175 82.5969 5.56877C83.3906 5.40579 84.1632 5.32324 84.9104 5.32324C86.2184 5.32324 87.3911 5.51374 88.4261 5.89473C89.4611 6.27573 90.4538 6.8324 91.4042 7.56476C91.5291 7.67482 91.5989 7.80605 91.6137 7.96268C91.6286 8.11932 91.5905 8.25901 91.4973 8.3839L89.6749 10.9768C89.5818 11.1017 89.4569 11.18 89.3003 11.2096C89.1436 11.2414 89.0039 11.2096 88.879 11.1165C88.0853 10.6191 87.3445 10.2635 86.6587 10.0539C85.9729 9.84437 85.3421 9.73854 84.7664 9.73854C84.595 9.73854 84.396 9.74277 84.1717 9.75124C83.9452 9.75971 83.7314 9.78934 83.5282 9.84437C83.325 9.89941 83.1578 9.9883 83.0266 10.1132C82.8932 10.2381 82.8276 10.4095 82.8276 10.6275C82.8276 10.8455 82.9906 11.0403 83.3186 11.2117C83.6467 11.3832 84.0193 11.5313 84.4405 11.6562C84.8617 11.7811 85.2659 11.8785 85.6554 11.9483C86.0449 12.0182 86.2946 12.0605 86.4026 12.0774C86.9635 12.1875 87.5794 12.3462 88.2483 12.5558C88.9171 12.7653 89.5458 13.0786 90.13 13.4913C90.7142 13.9041 91.2052 14.4417 91.601 15.1021C91.999 15.7646 92.1958 16.5943 92.1958 17.5913C92.1958 18.5247 92.0328 19.3311 91.7048 20.0084C91.3767 20.6858 90.9216 21.2424 90.3374 21.6785C89.7532 22.1145 89.0526 22.4383 88.2356 22.6479C87.4186 22.8574 86.5105 22.9633 85.5136 22.9633C84.7029 22.9633 83.9473 22.8977 83.2467 22.7643C82.5461 22.6331 81.892 22.4489 81.2846 22.2161C80.6771 21.9833 80.1119 21.706 79.5913 21.3864C79.0684 21.0668 78.5901 20.7281 78.1541 20.3704C78.0292 20.2773 77.9593 20.1481 77.9445 19.9852C77.9297 19.8222 77.9678 19.6783 78.0609 19.5534L79.8601 16.9605C79.9532 16.8356 80.0781 16.7573 80.2347 16.7277C80.3913 16.6959 80.531 16.7192 80.6559 16.7975" fill="white"/>
<path d="M23.0319 22.9989C21.855 22.4951 20.8115 21.803 19.9247 20.9436C19.0357 20.0801 18.3245 19.0514 17.8102 17.8872C17.2916 16.7146 17.0291 15.4489 17.0291 14.126C17.0291 12.8031 17.2916 11.5373 17.8102 10.3647C18.3245 9.20267 19.0336 8.16975 19.9226 7.29982C20.1998 7.02677 20.494 6.77489 20.8031 6.53783L20.5872 5.26362L16.1317 6.46586C16.1317 6.46586 13.9155 7.3866 12.8085 7.6279C11.7015 7.86919 11.2867 7.50725 11.2867 7.50725C11.2867 7.50725 11.0115 6.77701 11.8222 6.3685C12.635 5.95999 13.3631 5.4393 13.3631 5.4393C13.3631 5.4393 14.1145 4.92072 13.6065 4.27091C13.0964 3.62111 11.4158 4.091 11.4158 4.091L8.85044 4.78737V5.071L8.87584 11.3003V11.313L0.0685229 13.8804H0.0664062V25.0901L9.73942 22.3046L10.7258 22.021V22.7788L10.711 24.9631C11.6105 26.4405 16.1719 24.5906 17.8821 23.9239C18.6928 23.6085 20.4157 22.9375 23.2753 23.0984C23.1928 23.0666 23.1102 23.0349 23.0298 23.001" fill="#FFD900"/>
<path d="M8.84832 4.62695L0.0664062 7.1394V13.4893V13.8809L8.87372 11.3176L8.84832 4.62695Z" fill="#0055A0"/>
<path d="M7.10123 5.74414L7.40179 6.50825L8.47069 6.20768L7.66426 7.10514L7.95635 7.95602L7.1097 7.63641L6.26728 8.45132L6.55091 7.4311L5.74023 7.00565L6.80913 6.68181L7.10123 5.74414Z" fill="white"/>
<path d="M4.45415 8.27539L4.68486 8.86382L5.50611 8.63099L4.88594 9.32312L5.1103 9.97716L4.45838 9.73164L3.81069 10.3582L4.0287 9.57289L3.4043 9.24481L4.22767 8.99716L4.45415 8.27539Z" fill="white"/>
<path d="M1.82975 7.28711L2.12819 8.05121L3.19921 7.75065L2.39277 8.64811L2.68275 9.49899L1.83821 9.17938L0.995792 9.99428L1.27942 8.97407L0.46875 8.54862L1.53765 8.22478L1.82975 7.28711Z" fill="white"/>
<path d="M7.11507 8.83887L7.41351 9.60297L8.48453 9.30029L7.67809 10.1999L7.96807 11.0507L7.12142 10.7311L6.28111 11.5439L6.56474 10.5258L5.75195 10.1004L6.82297 9.77654L7.11507 8.83887Z" fill="white"/>
<path d="M1.84163 10.3818L2.14007 11.1459L3.20897 10.8433L2.40465 11.7428L2.69463 12.5937L1.84798 12.2741L1.00556 13.0869L1.28919 12.0688L0.478516 11.6434L1.54742 11.3195L1.84163 10.3818Z" fill="white"/>
<path d="M0.0664062 20.603V22.8508L10.7025 19.7542V17.5508L0.0664062 20.603Z" fill="#009D3C"/>
<path d="M0.0664062 16.1197V18.3676L10.7025 15.2688V13.0654L0.0664062 16.1197Z" fill="#009D3C"/>
<path d="M8.86523 9.10924L8.8737 11.3042V11.3169L10.7046 10.7835V8.58008L8.86523 9.10924Z" fill="#009D3C"/>
<path d="M19.5599 7.68083C19.6764 7.55383 19.797 7.42683 19.9219 7.30407C20.8066 6.43413 21.8544 5.73988 23.0312 5.234C23.099 5.20437 23.1688 5.17897 23.2365 5.15357C21.7422 4.95249 20.3706 5.24459 20.2775 5.2594C17.8243 5.6531 13.2185 7.40778 12.9751 7.47552C12.2999 7.66178 10.8839 7.72316 11.3305 6.89768C11.7242 6.16955 13.8874 5.86688 13.7794 4.73024C13.644 3.27823 10.6976 4.09102 10.6976 4.09102L8.82227 4.62865V4.63499L8.84555 4.62865L8.85402 6.83629L12.0607 5.90497C12.0607 5.90497 10.6891 6.33888 10.6891 6.98446C10.6891 7.29772 10.704 9.05453 10.6976 9.23021C10.6786 9.73185 12.6174 9.77206 13.699 9.43764C15.4579 8.89578 17.4454 8.11474 18.8593 7.80571C19.0922 7.75491 19.3292 7.7147 19.5578 7.68295" fill="#009D3C"/>
<path d="M17.8085 10.3779C17.1354 10.5705 16.3247 10.8309 15.3384 11.1886C10.7326 12.8523 10.7051 11.4595 10.7051 11.4595C10.7051 11.504 10.7051 13.6968 10.7051 13.6968C11.429 14.4609 12.8281 14.3424 16.1342 13.1169C16.4877 12.9856 16.8179 12.8734 17.1269 12.7718C17.2455 11.9421 17.472 11.1399 17.8085 10.3779Z" fill="#009D3C"/>
<path d="M17.0823 15.1318C16.5701 15.2927 15.9923 15.4874 15.3382 15.7245C10.7324 17.3882 10.707 15.9954 10.707 15.9954C10.707 16.0378 10.707 18.2327 10.707 18.2327C11.4309 18.9968 12.83 18.8783 16.1362 17.6549C16.6505 17.4644 17.1141 17.3099 17.5374 17.1829C17.3109 16.5246 17.1564 15.8388 17.0844 15.134" fill="#009D3C"/>
<path d="M19.9257 20.9433C19.4029 20.4353 18.9415 19.8681 18.5457 19.25C17.7583 19.4468 16.7169 19.7601 15.3368 20.2596C10.731 21.9233 10.7035 20.5306 10.7035 20.5306C10.7035 20.556 10.6929 21.3836 10.6993 22.0249C10.7035 22.444 10.7289 22.7827 10.7289 22.7827C11.4528 23.5468 12.8265 23.4113 16.1348 22.1879C18.1689 21.4344 19.4685 21.2227 20.1733 21.1719C20.0908 21.0978 20.0083 21.0216 19.9278 20.9433" fill="#009D3C"/>
<mask id="mask0_2321_3808" style="mask-type:luminance" maskUnits="userSpaceOnUse" x="9" y="4" width="5" height="19">
<path d="M13.1904 4.19238H9.5625V22.3552H13.1904V4.19238Z" fill="white"/>
</mask>
<g mask="url(#mask0_2321_3808)">
<path d="M10.1016 22.1988L10.7006 22.0273L10.1016 22.1988Z" fill="#E5E6E6"/>
<path d="M9.56319 8.90813V6.90367C9.56319 6.90367 9.55472 6.78091 9.59706 6.61793L12.0651 5.90039C12.0651 5.90039 12.0185 5.91521 11.9423 5.94272C11.7454 6.01469 11.5444 6.10359 11.3644 6.20519C11.1126 6.347 10.8628 6.53115 10.7527 6.74704C10.7273 6.79361 10.7104 6.84229 10.7019 6.89097C10.6956 6.91849 10.6935 6.94812 10.6935 6.97776C10.6935 7.02856 10.6935 7.11957 10.6935 7.23387C10.6935 7.51962 10.6935 7.98527 10.6935 8.58005L9.56319 8.90389M9.56319 13.3933V11.1158L10.6977 10.7856C10.6977 11.4989 10.6998 12.2715 10.7019 13.0652L9.56319 13.3912M10.7041 19.4045V17.5503L9.56319 17.8784V15.6009L10.7041 15.2686V14.5871C10.7041 15.1839 10.7041 15.7808 10.7041 16.3608C10.7041 16.9958 10.7041 18.2277 10.7041 18.2277C10.7041 18.6425 10.7041 19.0362 10.7041 19.4024M9.56319 22.353V20.0861L10.7041 19.7538C10.7041 20.0691 10.7041 20.3612 10.7041 20.6237C10.7019 20.8608 10.6956 21.5042 10.7019 22.027L10.1029 22.2006L9.56319 22.3551" fill="#E8C500"/>
<path d="M9.5625 20.0865V17.8789L10.7034 17.5508V19.405C10.7034 19.5235 10.7034 19.6399 10.7034 19.7542L9.5625 20.0865Z" fill="#00963C"/>
<path d="M9.56266 15.601V13.3933L10.7014 13.0674C10.7014 13.2748 10.7014 13.4844 10.7014 13.6939C10.7014 13.9924 10.7014 14.2908 10.7014 14.5892V15.2708L9.56055 15.6031" fill="#00963C"/>
<path d="M9.5625 11.1165V8.90881L10.6928 8.58496C10.6928 9.2009 10.6928 9.95442 10.697 10.7884L9.5625 11.1186" fill="#00963C"/>
<path d="M9.5957 6.62033C9.64862 6.40655 9.78832 6.12292 10.1397 5.943C10.7599 5.62762 12.4362 5.217 11.8817 4.2116C11.8817 4.2116 12.0108 4.19255 12.1865 4.19043H12.2034C12.5907 4.19043 13.1876 4.28991 13.1897 4.87622C13.1919 5.50063 12.4764 5.76521 12.051 5.9049C12.015 5.9176 11.9769 5.9303 11.9409 5.943C12.0171 5.91549 12.0658 5.90067 12.0658 5.90067L9.59782 6.61821M10.7514 6.75156C10.8614 6.53354 11.1112 6.3494 11.3631 6.2097C11.0858 6.36633 10.853 6.55471 10.7514 6.75156ZM10.6942 7.23838C10.6942 7.12408 10.6942 7.03307 10.6942 6.98227C10.6942 6.95264 10.6964 6.923 10.7027 6.89549C10.6985 6.91665 10.6964 6.93782 10.6964 6.95899C10.6964 7.00767 10.6964 7.10292 10.6964 7.23838" fill="#00963C"/>
<path d="M10.7 22.0274C10.6937 21.5045 10.7 20.859 10.7021 20.624C10.7021 21.4686 10.7 21.9998 10.7 22.0274Z" fill="#00963C"/>
</g>
<path d="M26.0428 2.70664C25.6449 2.70664 25.3231 2.58599 25.0755 2.34469C24.8278 2.10339 24.7051 1.7986 24.7051 1.43242V1.42607C24.7051 1.07259 24.83 0.769915 25.0818 0.520152C25.3337 0.270389 25.6512 0.145508 26.0343 0.145508C26.2481 0.145508 26.4323 0.173024 26.5846 0.228057C26.7392 0.283089 26.8852 0.367754 27.0249 0.482053L26.737 0.812248C26.6291 0.725466 26.519 0.65985 26.409 0.615401C26.2989 0.570951 26.1677 0.549785 26.0153 0.549785C25.7824 0.549785 25.5835 0.63445 25.4226 0.805898C25.2596 0.977345 25.1792 1.18054 25.1792 1.41972V1.42607C25.1792 1.6843 25.2596 1.89596 25.4226 2.06106C25.5856 2.22616 25.7951 2.31082 26.0555 2.31082C26.2968 2.31082 26.5042 2.24733 26.6778 2.12244V1.66313H26.0174V1.28002H27.1159V2.32141C26.7984 2.57752 26.4407 2.70664 26.0407 2.70664" fill="white"/>
<path d="M32.4534 2.7068C32.064 2.7068 31.7401 2.58192 31.4883 2.33427C31.2343 2.08662 31.1094 1.78606 31.1094 1.43258V1.42623C31.1094 1.07276 31.2385 0.770078 31.4946 0.520316C31.7507 0.268436 32.0724 0.143555 32.4619 0.143555C32.8514 0.143555 33.1731 0.268436 33.4271 0.516082C33.6811 0.763728 33.806 1.06429 33.806 1.41777V1.42412C33.806 1.7776 33.6769 2.08027 33.4207 2.33004C33.1646 2.5798 32.8408 2.70468 32.4534 2.70468M31.8333 2.04853C31.9984 2.21786 32.2079 2.30252 32.4619 2.30252C32.7159 2.30252 32.9233 2.21786 33.0863 2.05064C33.2493 1.88343 33.3318 1.676 33.3318 1.43047V1.42412C33.3318 1.17859 33.2493 0.971159 33.0842 0.801828C32.9191 0.632497 32.7096 0.547832 32.4556 0.547832C32.2016 0.547832 31.9941 0.632497 31.8311 0.799711C31.6682 0.966925 31.5856 1.17436 31.5856 1.41989V1.42623C31.5856 1.67176 31.6682 1.87919 31.8333 2.04853Z" fill="white"/>
<path d="M38.5531 2.68106L37.4863 0.185547H37.9859L38.7648 2.09052L39.5373 0.185547H40.0263L38.9595 2.68106H38.5531Z" fill="white"/>
<path d="M43.9844 2.66412V0.185547H45.8957V0.575007H44.4373V1.21846H45.7306V1.61216H44.4373V2.27466H45.9147V2.66412H43.9844Z" fill="white"/>
<path d="M49.9648 2.66412V0.185547H51.1142C51.4338 0.185547 51.6814 0.268096 51.8592 0.433193C52.001 0.577124 52.073 0.754921 52.073 0.968701V0.975051C52.073 1.1719 52.018 1.33276 51.9079 1.45764C51.7978 1.58464 51.6497 1.67354 51.4613 1.72434L52.1577 2.66201H51.6201L50.9872 1.79842H50.4199V2.66201H49.967L49.9648 2.66412ZM50.4178 1.41319H51.0803C51.2433 1.41319 51.3724 1.3751 51.4677 1.30101C51.5629 1.22693 51.6116 1.12533 51.6116 0.998334V0.991984C51.6116 0.85652 51.565 0.754921 51.474 0.685072C51.3809 0.615223 51.2496 0.581357 51.0782 0.581357H50.4199V1.41319H50.4178Z" fill="white"/>
<path d="M56.1426 2.66412V0.185547H56.5638L57.9438 1.8979V0.185547H58.3904V2.66412H58.0116L56.5892 0.900969V2.66412H56.1426Z" fill="white"/>
<path d="M63.7972 2.7068C63.4077 2.7068 63.086 2.58192 62.832 2.33427C62.578 2.08662 62.4531 1.78606 62.4531 1.43258V1.42623C62.4531 1.07276 62.5822 0.770078 62.8384 0.520316C63.0945 0.268436 63.4162 0.143555 63.8035 0.143555C64.1909 0.143555 64.5147 0.268436 64.7687 0.516082C65.0227 0.763728 65.1476 1.06429 65.1476 1.41777V1.42412C65.1476 1.7776 65.0185 2.08027 64.7624 2.33004C64.5063 2.5798 64.1824 2.70468 63.7951 2.70468M63.177 2.04853C63.3421 2.21786 63.5517 2.30252 63.8057 2.30252C64.0597 2.30252 64.2671 2.21786 64.4301 2.05064C64.593 1.88343 64.6756 1.676 64.6756 1.43047V1.42412C64.6756 1.17859 64.593 0.971159 64.4279 0.801828C64.2628 0.632497 64.0533 0.547832 63.7993 0.547832C63.5453 0.547832 63.3379 0.632497 63.1749 0.799711C63.0119 0.966925 62.9294 1.17436 62.9294 1.41989V1.42623C62.9294 1.67176 63.0119 1.87919 63.177 2.04853Z" fill="white"/>
<path d="M77 2.66412V0.185547H77.961C78.361 0.185547 78.6891 0.301962 78.9473 0.539025C79.2034 0.773971 79.3325 1.06607 79.3325 1.41954V1.42589C79.3325 1.77937 79.2034 2.0757 78.9473 2.31065C78.6912 2.54559 78.3631 2.66412 77.961 2.66412H77ZM77.9631 0.581357H77.4551V2.2662H77.9631C78.2298 2.2662 78.4478 2.18788 78.6108 2.03337C78.7759 1.87674 78.8584 1.67777 78.8584 1.43224V1.42589C78.8584 1.18036 78.7759 0.979285 78.6108 0.820537C78.4457 0.661789 78.2298 0.583474 77.9631 0.583474" fill="white"/>
<path d="M83.3965 2.66412V0.185547H85.3078V0.575007H83.8494V1.21846H85.1406V1.61216H83.8494V2.27466H85.3247V2.66412H83.3965Z" fill="white"/>
<path d="M27.5727 28.6141C27.2319 28.9401 26.8044 29.101 26.2921 29.101C25.7799 29.101 25.3545 28.9401 25.0158 28.6184C24.6771 28.2966 24.5078 27.9029 24.5078 27.4394V27.4309C24.5078 26.9653 24.6793 26.5716 25.02 26.2456C25.3608 25.9218 25.7884 25.7588 26.3006 25.7588C26.8128 25.7588 27.2383 25.9197 27.5769 26.2414C27.9156 26.5631 28.0849 26.9568 28.0849 27.4203V27.4288C28.0849 27.8945 27.9135 28.2882 27.5727 28.6141ZM25.5704 28.1506C25.763 28.3474 26.0064 28.4469 26.3006 28.4469C26.5948 28.4469 26.8382 28.3495 27.0266 28.1548C27.215 27.9601 27.3102 27.723 27.3102 27.4394V27.4309C27.3102 27.1473 27.215 26.9081 27.0224 26.7113C26.8298 26.5144 26.5863 26.4149 26.2921 26.4149C25.9979 26.4149 25.7545 26.5123 25.5661 26.7049C25.3777 26.8997 25.2825 27.1367 25.2825 27.4203V27.4288C25.2825 27.7124 25.3777 27.9516 25.5704 28.1485" fill="white"/>
<path d="M29.7422 29.0466V25.8145H32.28V26.4473H30.4788V27.1014H32.0641V27.7342H30.4788V28.4137H32.3033V29.0466H29.7422Z" fill="white"/>
<path d="M33.9364 29.0928C33.3818 29.0928 32.9056 28.9214 32.5098 28.5764L32.9479 28.0726C33.2845 28.3351 33.6189 28.4642 33.9533 28.4642C34.1078 28.4642 34.2264 28.4367 34.311 28.3837C34.3957 28.3287 34.438 28.2546 34.438 28.1594V28.1509C34.438 28.0578 34.3936 27.9837 34.3026 27.9244C34.2137 27.8652 34.0316 27.8038 33.7586 27.7403C33.5702 27.6937 33.4136 27.6493 33.2929 27.6048C33.1723 27.5604 33.058 27.5011 32.9521 27.427C32.8463 27.3529 32.768 27.2598 32.7193 27.1497C32.6706 27.0397 32.6452 26.9063 32.6452 26.7518V26.7433C32.6452 26.4513 32.7532 26.2163 32.9712 26.0364C33.1892 25.8586 33.4728 25.7676 33.8221 25.7676C34.2962 25.7676 34.7132 25.9052 35.0709 26.1782L34.6857 26.7137C34.3618 26.5021 34.0697 26.3941 33.8115 26.3941C33.6697 26.3941 33.5639 26.4195 33.4898 26.4724C33.4157 26.5253 33.3797 26.5931 33.3797 26.6756V26.6841C33.3797 26.7878 33.4263 26.8661 33.5173 26.9169C33.6083 26.9677 33.8051 27.0312 34.1057 27.1074C34.4719 27.2027 34.7407 27.3212 34.9121 27.463C35.0857 27.6048 35.1725 27.8101 35.1725 28.0768V28.0853C35.1725 28.3986 35.0603 28.6441 34.8338 28.8219C34.6073 28.9997 34.3089 29.0865 33.9385 29.0865" fill="white"/>
<path d="M36.3077 29.0466V26.4706H35.2832V25.8145H38.0708V26.4706H37.0464V29.0466H36.3077Z" fill="white"/>
<path d="M37.6955 29.0464L39.1369 25.791H39.8185L41.2599 29.0464H40.4852L40.1783 28.3204H38.7559L38.449 29.0464H37.6934H37.6955ZM39.0226 27.6939H39.9158L39.4692 26.6461L39.0226 27.6939Z" fill="white"/>
<path d="M41.5586 29.0466V25.8145H42.8709C43.3937 25.8145 43.8213 25.9669 44.1557 26.2738C44.4901 26.5807 44.6573 26.9617 44.6573 27.421V27.4294C44.6573 27.8909 44.4901 28.2761 44.1557 28.583C43.8213 28.892 43.3916 29.0444 42.8709 29.0444H41.5586V29.0466ZM42.8709 26.4558H42.2994V28.4052H42.8709C43.1715 28.4052 43.417 28.3163 43.6033 28.1364C43.7916 27.9586 43.8848 27.7258 43.8848 27.44V27.4316C43.8848 27.1458 43.7916 26.9109 43.6033 26.7288C43.4149 26.5468 43.1715 26.4558 42.8709 26.4558Z" fill="white"/>
<path d="M48.012 28.6141C47.6712 28.9401 47.2436 29.101 46.7314 29.101C46.2192 29.101 45.7938 28.9401 45.4551 28.6184C45.1164 28.2966 44.9492 27.9029 44.9492 27.4394V27.4309C44.9492 26.9653 45.1185 26.5716 45.4614 26.2456C45.8022 25.9218 46.2298 25.7588 46.742 25.7588C47.2542 25.7588 47.6797 25.9197 48.0183 26.2414C48.357 26.5631 48.5263 26.9568 48.5263 27.4203V27.4288C48.5263 27.8945 48.3549 28.2882 48.0141 28.6141M46.0097 28.1506C46.2023 28.3474 46.4457 28.4469 46.7399 28.4469C47.0341 28.4469 47.2754 28.3495 47.4659 28.1548C47.6543 27.9601 47.7495 27.723 47.7495 27.4394V27.4309C47.7495 27.1473 47.6543 26.9081 47.4617 26.7113C47.269 26.5144 47.0256 26.4149 46.7314 26.4149C46.4372 26.4149 46.1938 26.5123 46.0054 26.7049C45.817 26.8997 45.7218 27.1367 45.7218 27.4203V27.4288C45.7218 27.7124 45.8192 27.9516 46.0097 28.1485" fill="white"/>
<path d="M53.6549 28.6395L53.1829 29.1433L52.8125 28.8237C52.5183 29.0078 52.1839 29.101 51.8135 29.101C51.3012 29.101 50.8758 28.9401 50.5371 28.6184C50.1985 28.2966 50.0312 27.9029 50.0312 27.4394V27.4309C50.0312 26.9653 50.2027 26.5716 50.5435 26.2456C50.8843 25.9218 51.3118 25.7588 51.824 25.7588C52.3363 25.7588 52.7617 25.9197 53.1004 26.2414C53.439 26.5631 53.6084 26.9568 53.6084 27.4203V27.4288C53.6084 27.759 53.5089 28.068 53.3099 28.358L53.6549 28.6395ZM51.824 28.4448C51.9786 28.4448 52.1225 28.4152 52.2622 28.358L51.7182 27.9093L52.1881 27.4013L52.7405 27.8818C52.8019 27.7527 52.8316 27.6045 52.8316 27.4394V27.4309C52.8316 27.1473 52.7363 26.9081 52.5437 26.7113C52.3511 26.5144 52.1077 26.4149 51.8135 26.4149C51.5192 26.4149 51.2779 26.5123 51.0875 26.7049C50.8991 26.8997 50.8038 27.1367 50.8038 27.4203V27.4288C50.8038 27.7124 50.9012 27.9516 51.0917 28.1485C51.2843 28.3453 51.5277 28.4448 51.8219 28.4448" fill="white"/>
<path d="M56.5321 28.7261C56.2718 28.9717 55.9099 29.0965 55.4484 29.0965C54.987 29.0965 54.6293 28.9759 54.3753 28.7325C54.1213 28.4891 53.9922 28.1314 53.9922 27.6615V25.8136H54.733V27.6424C54.733 27.9049 54.7965 28.1038 54.9235 28.2372C55.0505 28.3727 55.2283 28.4404 55.459 28.4404C55.6897 28.4404 55.8675 28.3748 55.9945 28.2435C56.1215 28.1123 56.185 27.9197 56.185 27.6636V25.8115H56.9258V27.6361C56.9258 28.1165 56.7946 28.4806 56.5343 28.7261" fill="white"/>
<path d="M57.457 29.0466V25.8145H59.9949V26.4473H58.1936V27.1014H59.779V27.7342H58.1936V28.4137H60.0203V29.0466H57.457Z" fill="white"/>
<path d="M61.6777 29.0466V25.8145H62.9901C63.5129 25.8145 63.9404 25.9669 64.2748 26.2738C64.6093 26.5807 64.7765 26.9617 64.7765 27.421V27.4294C64.7765 27.8909 64.6093 28.2761 64.2748 28.583C63.9404 28.892 63.5107 29.0444 62.9901 29.0444H61.6777V29.0466ZM62.9901 26.4558H62.4186V28.4052H62.9901C63.2906 28.4052 63.5361 28.3163 63.7224 28.1364C63.9108 27.9586 64.0039 27.7258 64.0039 27.44V27.4316C64.0039 27.1458 63.9108 26.9109 63.7224 26.7288C63.534 26.5468 63.2906 26.4558 62.9901 26.4558Z" fill="white"/>
<path d="M64.6855 29.0468L66.127 25.7914H66.8085L68.25 29.0468H67.4753L67.1684 28.3207H65.746L65.4391 29.0468H64.6855ZM66.0127 27.6942H66.9059L66.4593 26.6465L66.0127 27.6942ZM66.1714 25.5141L66.7535 24.7881L67.3821 25.0505L66.7281 25.512H66.1714V25.5141Z" fill="white"/>
<path d="M71.3462 29.1011C70.853 29.1011 70.4424 28.9403 70.1143 28.6206C69.7862 28.301 69.6211 27.9073 69.6211 27.4374V27.429C69.6211 26.9612 69.7862 26.5654 70.1164 26.2415C70.4466 25.9177 70.8657 25.7568 71.3758 25.7568C71.9134 25.7568 72.3558 25.9241 72.7029 26.2564L72.233 26.7792C71.9473 26.5358 71.6615 26.4151 71.3716 26.4151C71.0816 26.4151 70.8614 26.5125 70.6752 26.7093C70.4889 26.9041 70.3958 27.1432 70.3958 27.4226V27.4311C70.3958 27.7147 70.4889 27.9539 70.6731 28.1508C70.8572 28.3476 71.09 28.4471 71.3716 28.4471C71.5515 28.4471 71.7081 28.4174 71.8393 28.3539C71.9727 28.2926 72.1103 28.1973 72.2563 28.0682L72.7283 28.5254C72.5421 28.7201 72.3431 28.8641 72.1293 28.9593C71.9155 29.0546 71.6552 29.1032 71.3483 29.1032" fill="white"/>
<path d="M73.0977 29.0466V25.8145H75.6334V26.4473H73.8321V27.1014H75.4175V27.7342H73.8321V28.4137H75.6588V29.0466H73.0977Z" fill="white"/>
<path d="M76.0941 29.0466V25.8145H77.6329C78.0583 25.8145 78.3864 25.9245 78.6129 26.1425C78.8055 26.3267 78.9007 26.5743 78.9007 26.8812V26.8897C78.9007 27.385 78.6594 27.7194 78.179 27.893L79.0002 29.0466H78.1345L77.4127 28.0115H76.8307V29.0466H76.0898H76.0941ZM76.8349 27.385H77.5842C77.7641 27.385 77.9038 27.3448 78.0012 27.2622C78.1006 27.1797 78.1493 27.0696 78.1493 26.9278V26.9193C78.1493 26.7691 78.0985 26.6548 77.9969 26.5743C77.8953 26.496 77.7535 26.4558 77.5673 26.4558H76.8328V27.385H76.8349Z" fill="white"/>
<path d="M80.1319 29.0466V26.4706H79.1074V25.8145H81.895V26.4706H80.8706V29.0466H80.1319Z" fill="white"/>
<path d="M85.012 28.6141C84.6712 28.9401 84.2436 29.101 83.7314 29.101C83.2192 29.101 82.7938 28.9401 82.4551 28.6184C82.1164 28.2966 81.9492 27.9029 81.9492 27.4394V27.4309C81.9492 26.9653 82.1207 26.5716 82.4614 26.2456C82.8022 25.9218 83.2298 25.7588 83.742 25.7588C84.2542 25.7588 84.6797 25.9197 85.0183 26.2414C85.357 26.5631 85.5242 26.9568 85.5242 27.4203V27.4288C85.5242 27.8945 85.3528 28.2882 85.012 28.6141ZM83.0118 28.1506C83.2044 28.3474 83.4478 28.4469 83.742 28.4469C84.0362 28.4469 84.2775 28.3495 84.468 28.1548C84.6564 27.9601 84.7516 27.723 84.7516 27.4394V27.4309C84.7516 27.1473 84.6543 26.9081 84.4638 26.7113C84.2712 26.5144 84.0278 26.4149 83.7335 26.4149C83.4393 26.4149 83.1959 26.5123 83.0075 26.7049C82.8192 26.8997 82.7239 27.1367 82.7239 27.4203V27.4288C82.7239 27.7124 82.8192 27.9516 83.0118 28.1485" fill="white"/>
</g>
<defs>
<clipPath id="clip0_2321_3808">
<rect width="92.1307" height="29" fill="white" transform="translate(0.0664062 0.143555)"/>
</clipPath>
</defs>
</svg>
